# Blender v2.62 (sub 0) OBJ File: 'floor.blend'
# www.blender.org
mtllib garden.mtl
o Cube_Cube.002
v -503.820923 -1.139750 304.741119
v -503.820923 -1.139750 273.117645
v 140.565506 -1.139750 273.897034
v 140.565506 -1.139750 306.810028
v -503.820923 30.483753 304.741119
v -503.820923 30.483753 273.117615
v 140.565506 30.483753 273.897034
v 140.565506 30.483753 306.810028
v -816.916321 30.483753 273.117615
v -816.916321 30.483753 304.741119
v -816.916321 -1.139750 273.117645
v -816.916321 -1.139750 304.741119
v -856.518250 -1.139750 304.741119
v -856.518250 -1.139750 273.117645
v -856.518250 30.483753 304.741119
v -856.518250 30.483753 273.117615
v -856.518250 30.483753 490.851807
v -856.518250 -1.139750 490.851807
v -816.916321 -1.139750 490.851807
v -816.916321 30.483753 490.851807
v -816.916321 30.483753 526.219849
v -816.916321 -1.139750 526.219849
v -856.518250 -1.139750 526.219849
v -856.518250 30.483753 526.219849
v -491.179565 -1.139750 526.219849
v -491.179565 30.483753 526.219849
v -491.179565 30.483753 490.851807
v -491.179565 -1.139750 490.851807
v -196.268219 -1.139750 490.851807
v -196.268219 30.483753 490.851807
v -196.268219 30.483753 526.219849
v -196.268219 -1.139750 526.219849
v 169.750656 -1.139750 526.219849
v 169.750656 30.483753 526.219849
v 169.750656 30.483753 490.851807
v 169.750656 -1.139750 490.851807
v 492.287415 -1.139750 490.851807
v 492.287415 30.483753 490.851807
v 492.287415 30.483753 526.219849
v 492.287415 -1.139750 526.219849
v 769.775757 -1.139750 526.219849
v 769.775757 30.483753 526.219849
v 769.775757 30.483753 490.851807
v 769.775757 -1.139750 490.851807
v 806.759888 -1.139750 490.851807
v 806.759888 30.483753 490.851807
v 806.759888 30.483753 526.219849
v 806.759888 -1.139750 526.219849
v 806.759888 30.483753 308.878906
v 806.759888 -1.139750 308.878906
v 769.775757 -1.139750 308.878906
v 769.775757 30.483753 308.878906
v 769.775757 30.483753 274.676453
v 769.775757 -1.139750 274.676453
v 806.759888 -1.139750 274.676453
v 806.759888 30.483753 274.676453
vt 0.661794 0.228322
vt 0.705466 0.228267
vt 0.707120 0.594369
vt 0.661667 0.594427
vt 0.047073 0.228322
vt 0.047200 0.594427
vt 0.001746 0.594369
vt 0.003400 0.228267
vt 0.758091 0.772478
vt 0.714419 0.772533
vt 0.711689 0.406432
vt 0.755361 0.406377
vt 0.955696 0.418146
vt 0.999368 0.418201
vt 0.999229 0.436900
vt 0.955556 0.436845
vt 0.811632 0.205823
vt 0.855304 0.205768
vt 0.858034 0.571869
vt 0.814362 0.571924
vt 0.810305 0.027941
vt 0.853978 0.027886
vt 0.759418 0.950360
vt 0.715745 0.950415
vt 0.004726 0.050385
vt 0.048399 0.050440
vt 0.660467 0.050440
vt 0.704140 0.050385
vt 0.660299 0.027941
vt 0.703972 0.027886
vt 0.004894 0.027886
vt 0.048567 0.027941
vt 0.759586 0.972859
vt 0.715913 0.972914
vt 0.954902 0.045852
vt 0.911229 0.045907
vt 0.911095 0.027941
vt 0.954768 0.027886
vt 0.955690 0.151589
vt 0.912018 0.151644
vt 0.305589 0.028265
vt 0.305421 0.050765
vt 0.403445 0.050765
vt 0.403277 0.028265
vt 0.955556 0.420442
vt 0.911884 0.420497
vt 0.911095 0.314760
vt 0.954768 0.314705
vt 0.354601 0.050826
vt 0.354433 0.028327
vt 0.354265 0.050826
vt 0.955840 0.171683
vt 0.912167 0.171738
vt 0.803426 0.050385
vt 0.759753 0.050440
vt 0.759586 0.027941
vt 0.803258 0.027886
vt 0.404825 0.235829
vt 0.355981 0.235890
vt 0.804806 0.235449
vt 0.761133 0.235504
vt 0.352885 0.235890
vt 0.304041 0.235829
vt 0.911095 0.929348
vt 0.867423 0.929403
vt 0.866042 0.744339
vt 0.909715 0.744284
vt 0.864793 0.576788
vt 0.908466 0.576733
vt 0.351636 0.403441
vt 0.302792 0.403379
vt 0.806056 0.402999
vt 0.762383 0.403055
vt 0.406074 0.403379
vt 0.357230 0.403441
vt 0.407625 0.611329
vt 0.358781 0.611390
vt 0.807606 0.610949
vt 0.763934 0.611004
vt 0.350085 0.611390
vt 0.301241 0.611329
vt 0.863242 0.368839
vt 0.906915 0.368784
vt 0.861876 0.185593
vt 0.905548 0.185538
vt 0.348719 0.794636
vt 0.299875 0.794575
vt 0.808973 0.794195
vt 0.765300 0.794250
vt 0.408992 0.794574
vt 0.360148 0.794636
vt 0.410167 0.952226
vt 0.361323 0.952288
vt 0.810148 0.951846
vt 0.766476 0.951902
vt 0.347543 0.952288
vt 0.298699 0.952226
vt 0.860700 0.027941
vt 0.904373 0.027886
vt 0.347386 0.973300
vt 0.298542 0.973239
vt 0.810305 0.972859
vt 0.766632 0.972914
vt 0.410324 0.973239
vt 0.361480 0.973300
vt 0.954918 0.191832
vt 0.911245 0.191887
vt 0.911095 0.171793
vt 0.954768 0.171738
vt 0.661475 0.951909
vt 0.661632 0.972921
vt 0.955689 0.295218
vt 0.912016 0.295273
vt 0.047234 0.972921
vt 0.047391 0.951909
vt 1.000000 0.418091
vt 0.956327 0.418146
vt 0.955556 0.314760
vt 0.999229 0.314705
vt 0.000000 0.972862
vt 0.000157 0.951850
vt 0.955833 0.314650
vt 0.912161 0.314705
vt 0.708709 0.951850
vt 0.708866 0.972862
vt 0.752696 0.048898
vt 0.709023 0.048953
vt 0.708866 0.027941
vt 0.752539 0.027886
vt 0.860700 0.929349
vt 0.817027 0.929404
vn -0.000000 -1.000000 0.000000
vn 0.000000 1.000000 -0.000000
vn 0.001210 -0.000000 -0.999999
vn 1.000000 0.000000 0.000000
vn -0.003211 0.000000 0.999995
vn -0.000000 0.000000 1.000000
vn 0.000000 -0.000001 -1.000000
vn -1.000000 0.000000 0.000000
vn -0.000000 0.000000 -1.000000
vn 0.001239 0.000000 -0.999999
vn -0.003288 0.000000 0.999995
usemtl Material.003_wall.jpg
s off
f 1/1/1 2/2/1 3/3/1
f 1/1/1 3/3/1 4/4/1
f 5/5/2 8/6/2 7/7/2
f 5/5/2 7/7/2 6/8/2
f 2/9/3 6/10/3 7/11/3
f 2/9/3 7/11/3 3/12/3
f 3/13/4 7/14/4 8/15/4
f 3/13/4 8/15/4 4/16/4
f 5/17/5 1/18/5 4/19/5
f 5/17/5 4/19/5 8/20/5
f 1/18/6 5/17/6 10/21/6
f 1/18/6 10/21/6 12/22/6
f 6/10/7 2/9/7 11/23/7
f 6/10/7 11/23/7 9/24/7
f 5/5/2 6/8/2 9/25/2
f 5/5/2 9/25/2 10/26/2
f 2/2/1 1/1/1 12/27/1
f 2/2/1 12/27/1 11/28/1
f 11/28/1 12/27/1 13/29/1
f 11/28/1 13/29/1 14/30/1
f 10/26/2 9/25/2 16/31/2
f 10/26/2 16/31/2 15/32/2
f 9/24/7 11/23/7 14/33/7
f 9/24/7 14/33/7 16/34/7
f 13/35/8 15/36/8 16/37/8
f 13/35/8 16/37/8 14/38/8
f 15/36/8 13/35/8 18/39/8
f 15/36/8 18/39/8 17/40/8
f 10/26/2 15/32/2 17/41/2
f 10/26/2 17/41/2 20/42/2
f 13/29/1 12/27/1 19/43/1
f 13/29/1 19/43/1 18/44/1
f 12/45/4 10/46/4 20/47/4
f 12/45/4 20/47/4 19/48/4
f 18/44/1 19/43/1 22/49/1
f 18/44/1 22/49/1 23/50/1
f 20/42/2 17/41/2 24/50/2
f 20/42/2 24/50/2 21/51/2
f 17/40/8 18/39/8 23/52/8
f 17/40/8 23/52/8 24/53/8
f 22/54/6 21/55/6 24/56/6
f 22/54/6 24/56/6 23/57/6
f 22/49/1 19/43/1 28/58/1
f 22/49/1 28/58/1 25/59/1
f 21/55/6 22/54/6 25/60/6
f 21/55/6 25/60/6 26/61/6
f 20/42/2 21/51/2 26/62/2
f 20/42/2 26/62/2 27/63/2
f 19/64/9 20/65/9 27/66/9
f 19/64/9 27/66/9 28/67/9
f 28/67/9 27/66/9 30/68/9
f 28/67/9 30/68/9 29/69/9
f 27/63/2 26/62/2 31/70/2
f 27/63/2 31/70/2 30/71/2
f 26/61/6 25/60/6 32/72/6
f 26/61/6 32/72/6 31/73/6
f 25/59/1 28/58/1 29/74/1
f 25/59/1 29/74/1 32/75/1
f 32/75/1 29/74/1 36/76/1
f 32/75/1 36/76/1 33/77/1
f 31/73/6 32/72/6 33/78/6
f 31/73/6 33/78/6 34/79/6
f 30/71/2 31/70/2 34/80/2
f 30/71/2 34/80/2 35/81/2
f 29/69/9 30/68/9 35/82/9
f 29/69/9 35/82/9 36/83/9
f 36/83/9 35/82/9 38/84/9
f 36/83/9 38/84/9 37/85/9
f 35/81/2 34/80/2 39/86/2
f 35/81/2 39/86/2 38/87/2
f 34/79/6 33/78/6 40/88/6
f 34/79/6 40/88/6 39/89/6
f 33/77/1 36/76/1 37/90/1
f 33/77/1 37/90/1 40/91/1
f 40/91/1 37/90/1 44/92/1
f 40/91/1 44/92/1 41/93/1
f 39/89/6 40/88/6 41/94/6
f 39/89/6 41/94/6 42/95/6
f 38/87/2 39/86/2 42/96/2
f 38/87/2 42/96/2 43/97/2
f 37/85/9 38/84/9 43/98/9
f 37/85/9 43/98/9 44/99/9
f 43/97/2 42/96/2 47/100/2
f 43/97/2 47/100/2 46/101/2
f 42/95/6 41/94/6 48/102/6
f 42/95/6 48/102/6 47/103/6
f 41/93/1 44/92/1 45/104/1
f 41/93/1 45/104/1 48/105/1
f 45/106/4 46/107/4 47/108/4
f 45/106/4 47/108/4 48/109/4
f 45/104/1 44/92/1 51/110/1
f 45/104/1 51/110/1 50/111/1
f 46/107/4 45/106/4 50/112/4
f 46/107/4 50/112/4 49/113/4
f 43/97/2 46/101/2 49/114/2
f 43/97/2 49/114/2 52/115/2
f 44/116/8 43/117/8 52/118/8
f 44/116/8 52/118/8 51/119/8
f 52/115/2 49/114/2 56/120/2
f 52/115/2 56/120/2 53/121/2
f 49/113/4 50/112/4 55/122/4
f 49/113/4 55/122/4 56/123/4
f 50/111/1 51/110/1 54/124/1
f 50/111/1 54/124/1 55/125/1
f 54/126/9 53/127/9 56/128/9
f 54/126/9 56/128/9 55/129/9
f 54/124/1 51/110/1 4/4/1
f 54/124/1 4/4/1 3/3/1
f 53/127/10 54/126/10 3/12/10
f 53/127/10 3/12/10 7/11/10
f 52/115/2 53/121/2 7/7/2
f 52/115/2 7/7/2 8/6/2
f 51/130/11 52/131/11 8/20/11
f 51/130/11 8/20/11 4/19/11
o Plane.053
v -855.914795 -1.652588 521.825195
v -855.914795 -1.652588 278.748840
v 803.403015 -1.652588 278.748871
v 803.402588 -1.652588 521.825256
v -855.914795 -1.652588 521.825195
v -855.914795 -1.652588 278.748840
v 803.403015 -1.652588 278.748871
v 803.402588 -1.652588 521.825256
v -25.346321 -1.652588 278.748871
v -25.346519 -1.652588 521.825195
v -446.065308 -1.652588 278.748871
v -446.065430 -1.652588 521.825195
v 389.028320 -1.652588 278.748871
v 389.028046 -1.652588 521.825195
vt 0.003059 0.000000
vt 0.249302 0.000755
vt 0.246243 0.997697
vt 0.000000 0.996942
vt 0.502076 0.001531
vt 0.499017 0.998473
vt 0.751038 0.002295
vt 0.747980 0.999236
vt 1.000000 0.003058
vt 0.996942 1.000000
usemtl Material.002_grass.jpg
s off
f 57/132/2 68/133/2 67/134/2
f 57/132/2 67/134/2 58/135/2
f 68/133/2 66/136/2 65/137/2
f 68/133/2 65/137/2 67/134/2
f 66/136/2 70/138/2 69/139/2
f 66/136/2 69/139/2 65/137/2
f 70/138/2 60/140/2 59/141/2
f 70/138/2 59/141/2 69/139/2
f 57 61
f 58 62
f 59 63
f 60 64
