# Blender v2.62 (sub 0) OBJ File: ''
# www.blender.org
mtllib RightHand.mtl
o Mesh.001_Mesh.005_Mesh.007_Mesh_polySurface632_polySurface664
v 11.871796 -28.256321 0.393418
v 12.049574 -30.112518 1.079137
v 12.557512 -30.244833 0.882552
v 12.557512 -28.246914 0.218605
v 11.871796 -23.387672 2.874397
v 11.909776 -23.686270 0.569089
v 12.557512 -23.367519 0.592156
v 12.557512 -23.074051 2.874397
v 11.871796 -24.328537 5.261309
v 12.049574 -23.631599 4.349836
v 12.557512 -23.387672 4.866239
v 12.557512 -24.328537 5.530186
v 11.871796 -30.743374 2.874395
v 12.049574 -30.037266 4.791935
v 12.557512 -30.244833 4.866237
v 12.557512 -30.910807 2.874395
v 13.243228 -28.256321 0.393418
v 13.065450 -30.112518 1.079137
v 13.243228 -30.743374 2.874395
v 13.471801 -28.246914 2.874394
v 11.871796 -28.246914 5.261307
v 11.643224 -28.246914 2.874394
v 12.127048 -26.208582 -1.968346
v 12.104104 -26.693745 -1.655253
v 12.557512 -26.775299 -1.673171
v 12.557512 -26.336325 -2.042591
v 11.871796 -25.935373 5.261308
v 12.557512 -25.935373 5.530186
v 12.557512 -28.246914 5.530184
v 13.423210 -24.533424 0.607847
v 13.301207 -25.910578 0.500164
v 13.471801 -25.935373 2.874397
v 13.471801 -24.328535 2.874397
v 11.643224 -25.935373 2.874397
v 11.643224 -24.328535 2.874397
v 12.023717 -25.907223 -0.677451
v 11.813817 -25.910578 0.500164
v 12.557512 -26.374069 0.039098
v 12.557512 -26.083321 -0.499428
v 13.091308 -25.907223 -0.677451
v 13.277438 -25.148092 -0.880221
v 13.091308 -24.582064 -1.035256
v 13.205248 -23.686270 0.569089
v 12.557512 -24.247921 -0.942988
v 12.023717 -24.582064 -1.035255
v 11.691814 -24.533424 0.607847
v 11.837586 -25.148092 -0.880221
v 13.243228 -23.387672 2.874397
v 13.065450 -23.631599 4.349836
v 13.243228 -24.328535 5.261309
v 13.243228 -25.935373 5.261308
v 13.065450 -30.037266 4.791935
v 13.243228 -28.246914 5.261307
v 13.010920 -26.693745 -1.655253
v 12.987977 -26.208582 -1.968346
v 12.999301 -25.718374 -2.367258
v 12.557512 -25.673815 -2.479702
v 12.115724 -25.718374 -2.367258
vt 0.375000 0.084981
vt 0.375000 0.000000
vt 0.500000 0.000000
vt 0.500000 0.084981
vt 0.375000 0.375000
vt 0.375000 0.250000
vt 0.500000 0.281250
vt 0.500000 0.375000
vt 0.375000 0.540019
vt 0.375000 0.500000
vt 0.500000 0.478755
vt 0.500000 0.540019
vt 0.375000 0.875000
vt 0.375000 0.750000
vt 0.500000 0.760005
vt 0.500000 0.875000
vt 0.625000 0.084981
vt 0.625000 0.000000
vt 0.750000 0.000000
vt 0.750000 0.084981
vt 0.125000 0.084981
vt 0.125000 0.000000
vt 0.250000 0.000000
vt 0.250000 0.084981
vt 0.406250 0.211420
vt 0.430556 0.188387
vt 0.500000 0.179966
vt 0.500000 0.209981
vt 0.375000 0.665019
vt 0.375000 0.580039
vt 0.500000 0.591279
vt 0.500000 0.665019
vt 0.656250 0.211420
vt 0.625000 0.162998
vt 0.750000 0.158721
vt 0.750000 0.209981
vt 0.125000 0.209981
vt 0.125000 0.169961
vt 0.250000 0.158721
vt 0.250000 0.209981
vt 0.406250 0.181405
vt 0.375000 0.162998
vt 0.500000 0.148716
vt 0.500000 0.169961
vt 0.593750 0.181405
vt 0.625000 0.215736
vt 0.593750 0.241434
vt 0.625000 0.250000
vt 0.500000 0.250000
vt 0.406250 0.241434
vt 0.343750 0.211420
vt 0.375000 0.215736
vt 0.625000 0.375000
vt 0.625000 0.500000
vt 0.625000 0.540019
vt 0.625000 0.580039
vt 0.625000 0.750000
vt 0.625000 0.875000
vt 0.625000 1.000000
vt 0.500000 1.000000
vt 0.375000 1.000000
vt 0.875000 0.000000
vt 0.875000 0.084981
vt 0.875000 0.169961
vt 0.569444 0.188387
vt 0.593750 0.211420
vt 0.569444 0.232853
vt 0.500000 0.239995
vt 0.430556 0.232853
vt 0.625000 0.665019
vt 0.875000 0.209981
vt 0.875000 0.250000
vt 0.750000 0.250000
vt 0.250000 0.250000
vt 0.125000 0.250000
vn 0.742393 0.152165 0.652425
vn 0.709464 0.513016 0.483108
vn 0.000000 0.699423 0.714682
vn 0.000000 0.202307 0.979308
vn 0.758934 -0.650655 -0.025117
vn 0.736961 -0.630390 0.243751
vn 0.000000 -0.951506 0.307596
vn 0.000000 -0.999878 -0.013611
vn 0.753868 -0.271493 -0.598254
vn 0.737327 -0.634632 -0.231361
vn 0.000000 -0.866268 -0.499527
vn 0.000000 -0.283914 -0.958831
vn 0.717429 0.696585 -0.000855
vn 0.679586 0.462325 -0.569536
vn 0.000000 0.710013 -0.704154
vn 0.000000 1.000000 0.000000
vn -0.742393 0.152165 0.652425
vn -0.709464 0.513016 0.483108
vn -0.717429 0.696585 -0.000855
vn -0.998962 0.045442 -0.001862
vn 0.775933 0.117588 -0.619709
vn 0.998962 0.045442 -0.001862
vn 0.762566 0.373028 0.528489
vn 0.632099 0.762688 0.136784
vn 0.000000 0.986969 0.160863
vn 0.000000 0.602008 0.798456
vn 0.798303 0.000000 -0.602222
vn 0.000000 0.000000 -1.000000
vn 0.000000 0.154149 -0.988037
vn -0.989776 -0.094729 0.106540
vn -0.954253 0.167638 0.247505
vn -0.999786 0.009766 -0.017273
vn -0.992065 -0.121647 -0.030946
vn 0.999786 0.009766 -0.017273
vn 0.992065 -0.121647 -0.030946
vn 0.837581 0.545183 -0.034486
vn 0.954253 0.167638 0.247505
vn 0.000000 0.574480 0.818506
vn 0.000000 0.995911 0.090243
vn -0.837581 0.545183 -0.034486
vn -0.981750 -0.012940 0.189703
vn -0.707694 -0.533403 0.463240
vn -0.736961 -0.630390 0.243751
vn 0.000000 -0.823267 0.567614
vn 0.707694 -0.533403 0.463240
vn 0.989776 -0.094729 0.106540
vn 0.981750 -0.012940 0.189703
vn -0.758934 -0.650655 -0.025117
vn -0.737327 -0.634632 -0.231361
vn -0.753868 -0.271493 -0.598254
vn -0.798303 0.000000 -0.602222
vn -0.679586 0.462325 -0.569536
vn -0.775933 0.117588 -0.619709
vn -0.632099 0.762688 0.136784
vn -0.762566 0.373028 0.528489
vn -0.662343 -0.024018 0.748772
vn 0.000000 -0.127873 0.991760
vn 0.662343 -0.024018 0.748772
usemtl face1SG
s 1
f 1/1/1 2/2/2 3/3/3
f 1/1/1 3/3/3 4/4/4
f 5/5/5 6/6/6 7/7/7
f 5/5/5 7/7/7 8/8/8
f 9/9/9 10/10/10 11/11/11
f 9/9/9 11/11/11 12/12/12
f 13/13/13 14/14/14 15/15/15
f 13/13/13 15/15/15 16/16/16
f 17/17/17 18/18/18 19/19/19
f 17/17/17 19/19/19 20/20/20
f 21/21/21 14/22/14 13/23/13
f 21/21/21 13/23/13 22/24/22
f 23/25/23 24/26/24 25/27/25
f 23/25/23 25/27/25 26/28/26
f 21/29/21 27/30/27 28/31/28
f 21/29/21 28/31/28 29/32/29
f 30/33/30 31/34/31 32/35/32
f 30/33/30 32/35/32 33/36/33
f 9/37/9 27/38/27 34/39/34
f 9/37/9 34/39/34 35/40/35
f 36/41/36 37/42/37 38/43/38
f 36/41/36 38/43/38 39/44/39
f 40/45/40 31/34/31 30/33/30
f 40/45/40 30/33/30 41/46/41
f 42/47/42 43/48/43 7/7/7
f 42/47/42 7/7/7 44/49/44
f 45/50/45 6/6/6 46/51/46
f 45/50/45 46/51/46 47/52/47
f 3/3/3 18/18/18 17/17/17
f 3/3/3 17/17/17 4/4/4
f 17/17/17 31/34/31 38/43/38
f 17/17/17 38/43/38 4/4/4
f 1/1/1 4/4/4 38/43/38
f 1/1/1 38/43/38 37/42/37
f 7/7/7 43/48/43 48/53/48
f 7/7/7 48/53/48 8/8/8
f 48/53/48 49/54/49 11/11/11
f 48/53/48 11/11/11 8/8/8
f 11/11/11 10/10/10 5/5/5
f 11/11/11 5/5/5 8/8/8
f 11/11/11 49/54/49 50/55/50
f 11/11/11 50/55/50 12/12/12
f 50/55/50 51/56/51 28/31/28
f 50/55/50 28/31/28 12/12/12
f 28/31/28 27/30/27 9/9/9
f 28/31/28 9/9/9 12/12/12
f 15/15/15 52/57/52 19/58/19
f 15/15/15 19/58/19 16/16/16
f 19/58/19 18/59/18 3/60/3
f 19/58/19 3/60/3 16/16/16
f 3/60/3 2/61/2 13/13/13
f 3/60/3 13/13/13 16/16/16
f 19/19/19 52/62/52 53/63/53
f 19/19/19 53/63/53 20/20/20
f 53/63/53 51/64/51 32/35/32
f 53/63/53 32/35/32 20/20/20
f 32/35/32 31/34/31 17/17/17
f 32/35/32 17/17/17 20/20/20
f 1/1/1 22/24/22 13/23/13
f 1/1/1 13/23/13 2/2/2
f 1/1/1 37/42/37 34/39/34
f 1/1/1 34/39/34 22/24/22
f 34/39/34 27/38/27 21/21/21
f 34/39/34 21/21/21 22/24/22
f 25/27/25 54/65/54 55/66/55
f 25/27/25 55/66/55 26/28/26
f 55/66/55 56/67/56 57/68/57
f 55/66/55 57/68/57 26/28/26
f 57/68/57 58/69/58 23/25/23
f 57/68/57 23/25/23 26/28/26
f 28/31/28 51/56/51 53/70/53
f 28/31/28 53/70/53 29/32/29
f 53/70/53 52/57/52 15/15/15
f 53/70/53 15/15/15 29/32/29
f 15/15/15 14/14/14 21/29/21
f 15/15/15 21/29/21 29/32/29
f 32/35/32 51/64/51 50/71/50
f 32/35/32 50/71/50 33/36/33
f 50/71/50 49/72/49 48/73/48
f 50/71/50 48/73/48 33/36/33
f 48/73/48 43/48/43 30/33/30
f 48/73/48 30/33/30 33/36/33
f 34/39/34 37/42/37 46/51/46
f 34/39/34 46/51/46 35/40/35
f 46/51/46 6/6/6 5/74/5
f 46/51/46 5/74/5 35/40/35
f 5/74/5 10/75/10 9/37/9
f 5/74/5 9/37/9 35/40/35
f 38/43/38 31/34/31 40/45/40
f 38/43/38 40/45/40 39/44/39
f 40/45/40 54/65/54 25/27/25
f 40/45/40 25/27/25 39/44/39
f 25/27/25 24/26/24 36/41/36
f 25/27/25 36/41/36 39/44/39
f 30/33/30 43/48/43 42/47/42
f 30/33/30 42/47/42 41/46/41
f 42/47/42 56/67/56 55/66/55
f 42/47/42 55/66/55 41/46/41
f 55/66/55 54/65/54 40/45/40
f 55/66/55 40/45/40 41/46/41
f 7/7/7 6/6/6 45/50/45
f 7/7/7 45/50/45 44/49/44
f 45/50/45 58/69/58 57/68/57
f 45/50/45 57/68/57 44/49/44
f 57/68/57 56/67/56 42/47/42
f 57/68/57 42/47/42 44/49/44
f 46/51/46 37/42/37 36/41/36
f 46/51/46 36/41/36 47/52/47
f 36/41/36 24/26/24 23/25/23
f 36/41/36 23/25/23 47/52/47
f 23/25/23 58/69/58 45/50/45
f 23/25/23 45/50/45 47/52/47
