# Blender v2.62 (sub 0) OBJ File: 'Parking.blend'
# www.blender.org
mtllib collum.mtl
o Cube.008
v 20.000000 1.000000 -620.000000
v 20.000000 1.000000 -580.000000
v -20.000000 1.000000 -580.000000
v -20.000000 1.000000 -620.000000
v 20.000000 281.000000 -620.000000
v 20.000000 281.000000 -580.000000
v -20.000000 281.000000 -580.000000
v -20.000000 281.000000 -620.000000
vt 0.360434 1.005655
vt 0.836982 1.008753
vt 0.838444 -0.001199
vt 0.361896 -0.004297
vt 0.682244 -0.001520
vt 0.683709 0.995174
vt 0.206202 0.998232
vt 0.204737 0.001538
vt 0.425137 0.998706
vt 0.001961 1.001768
vt 0.000663 0.003893
vt 0.423839 0.000832
vt 1.000205 0.000164
vt 1.001675 0.999370
vt 0.522527 1.002436
vt 0.521057 0.003230
vt 0.329045 1.003269
vt -0.003269 1.004288
vt -0.004288 0.671974
vt 0.328026 0.670955
vt 0.333333 0.667686
vt 0.665647 0.666667
vt 0.666667 0.998980
vt 0.334353 1.000000
vn 1.000000 0.000000 0.000000
vn 0.000000 -0.000000 1.000000
vn -1.000000 0.000000 0.000000
vn 0.000000 -0.000000 -1.000000
vn 0.000000 -1.000000 0.000000
vn 0.000000 1.000000 0.000000
usemtl Material_pilar.jpg
s off
f 2/1/1 1/2/1 5/3/1
f 2/1/1 5/3/1 6/4/1
f 6/5/2 7/6/2 3/7/2
f 6/5/2 3/7/2 2/8/2
f 7/9/3 8/10/3 4/11/3
f 7/9/3 4/11/3 3/12/3
f 1/13/4 4/14/4 8/15/4
f 1/13/4 8/15/4 5/16/4
usemtl Material
f 1/17/5 2/18/5 3/19/5
f 1/17/5 3/19/5 4/20/5
f 8/21/6 7/22/6 6/23/6
f 8/21/6 6/23/6 5/24/6
o Cube.007
v -580.000000 1.000000 -620.000000
v -580.000000 1.000000 -580.000000
v -620.000000 1.000000 -580.000000
v -620.000000 1.000000 -620.000000
v -580.000000 281.000000 -620.000000
v -580.000000 281.000000 -580.000000
v -620.000000 281.000000 -580.000000
v -620.000000 281.000000 -620.000000
vt 0.360434 1.005655
vt 0.836982 1.008753
vt 0.838444 -0.001199
vt 0.361896 -0.004297
vt 0.682244 -0.001520
vt 0.683709 0.995174
vt 0.206202 0.998232
vt 0.204737 0.001538
vt 0.425137 0.998706
vt 0.001961 1.001768
vt 0.000663 0.003893
vt 0.423839 0.000832
vt 1.000205 0.000164
vt 1.001675 0.999370
vt 0.522527 1.002436
vt 0.521057 0.003230
vt 0.329045 1.003269
vt -0.003269 1.004288
vt -0.004288 0.671974
vt 0.328026 0.670955
vt 0.333333 0.667686
vt 0.665647 0.666667
vt 0.666667 0.998980
vt 0.334353 1.000000
usemtl Material_pilar.jpg
s off
f 10/25/1 9/26/1 13/27/1
f 10/25/1 13/27/1 14/28/1
f 14/29/2 15/30/2 11/31/2
f 14/29/2 11/31/2 10/32/2
f 15/33/3 16/34/3 12/35/3
f 15/33/3 12/35/3 11/36/3
f 9/37/4 12/38/4 16/39/4
f 9/37/4 16/39/4 13/40/4
usemtl Material
f 9/41/5 10/42/5 11/43/5
f 9/41/5 11/43/5 12/44/5
f 16/45/6 15/46/6 14/47/6
f 16/45/6 14/47/6 13/48/6
o Cube.006
v 620.000000 1.000000 -620.000000
v 620.000000 1.000000 -580.000000
v 580.000000 1.000000 -580.000000
v 580.000000 1.000000 -620.000000
v 620.000000 281.000000 -620.000000
v 620.000000 281.000000 -580.000000
v 580.000000 281.000000 -580.000000
v 580.000000 281.000000 -620.000000
vt 0.360434 1.005655
vt 0.836982 1.008753
vt 0.838444 -0.001199
vt 0.361896 -0.004297
vt 0.682244 -0.001520
vt 0.683709 0.995174
vt 0.206202 0.998232
vt 0.204737 0.001538
vt 0.425137 0.998706
vt 0.001961 1.001768
vt 0.000663 0.003893
vt 0.423839 0.000832
vt 1.000205 0.000164
vt 1.001675 0.999370
vt 0.522527 1.002436
vt 0.521057 0.003230
vt 0.329045 1.003269
vt -0.003269 1.004288
vt -0.004288 0.671974
vt 0.328026 0.670955
vt 0.333333 0.667686
vt 0.665647 0.666667
vt 0.666667 0.998980
vt 0.334353 1.000000
usemtl Material_pilar.jpg
s off
f 18/49/1 17/50/1 21/51/1
f 18/49/1 21/51/1 22/52/1
f 22/53/2 23/54/2 19/55/2
f 22/53/2 19/55/2 18/56/2
f 23/57/3 24/58/3 20/59/3
f 23/57/3 20/59/3 19/60/3
f 17/61/4 20/62/4 24/63/4
f 17/61/4 24/63/4 21/64/4
usemtl Material
f 17/65/5 18/66/5 19/67/5
f 17/65/5 19/67/5 20/68/5
f 24/69/6 23/70/6 22/71/6
f 24/69/6 22/71/6 21/72/6
o Cube.005
v -580.000000 1.000000 580.000000
v -580.000000 1.000000 620.000000
v -620.000000 1.000000 620.000000
v -620.000000 1.000000 580.000000
v -580.000000 281.000000 580.000000
v -580.000000 281.000000 620.000000
v -620.000000 281.000000 620.000000
v -620.000000 281.000000 580.000000
vt 0.360434 1.005655
vt 0.836982 1.008753
vt 0.838444 -0.001199
vt 0.361896 -0.004297
vt 0.682244 -0.001520
vt 0.683709 0.995174
vt 0.206202 0.998232
vt 0.204737 0.001538
vt 0.425137 0.998706
vt 0.001961 1.001768
vt 0.000663 0.003893
vt 0.423839 0.000832
vt 1.000205 0.000164
vt 1.001675 0.999370
vt 0.522527 1.002436
vt 0.521057 0.003230
vt 0.329045 1.003269
vt -0.003269 1.004288
vt -0.004288 0.671974
vt 0.328026 0.670955
vt 0.333333 0.667686
vt 0.665647 0.666667
vt 0.666667 0.998980
vt 0.334353 1.000000
usemtl Material_pilar.jpg
s off
f 26/73/1 25/74/1 29/75/1
f 26/73/1 29/75/1 30/76/1
f 30/77/2 31/78/2 27/79/2
f 30/77/2 27/79/2 26/80/2
f 31/81/3 32/82/3 28/83/3
f 31/81/3 28/83/3 27/84/3
f 25/85/4 28/86/4 32/87/4
f 25/85/4 32/87/4 29/88/4
usemtl Material
f 25/89/5 26/90/5 27/91/5
f 25/89/5 27/91/5 28/92/5
f 32/93/6 31/94/6 30/95/6
f 32/93/6 30/95/6 29/96/6
o Cube.004
v 20.000000 1.000000 580.000000
v 20.000000 1.000000 620.000000
v -20.000000 1.000000 620.000000
v -20.000000 1.000000 580.000000
v 20.000000 281.000000 580.000000
v 20.000000 281.000000 620.000000
v -20.000000 281.000000 620.000000
v -20.000000 281.000000 580.000000
vt 0.360434 1.005655
vt 0.836982 1.008753
vt 0.838444 -0.001199
vt 0.361896 -0.004297
vt 0.682244 -0.001520
vt 0.683709 0.995174
vt 0.206202 0.998232
vt 0.204737 0.001538
vt 0.425137 0.998706
vt 0.001961 1.001768
vt 0.000663 0.003893
vt 0.423839 0.000832
vt 1.000205 0.000164
vt 1.001675 0.999370
vt 0.522527 1.002436
vt 0.521057 0.003230
vt 0.329045 1.003269
vt -0.003269 1.004288
vt -0.004288 0.671974
vt 0.328026 0.670955
vt 0.333333 0.667686
vt 0.665647 0.666667
vt 0.666667 0.998980
vt 0.334353 1.000000
usemtl Material_pilar.jpg
s off
f 34/97/1 33/98/1 37/99/1
f 34/97/1 37/99/1 38/100/1
f 38/101/2 39/102/2 35/103/2
f 38/101/2 35/103/2 34/104/2
f 39/105/3 40/106/3 36/107/3
f 39/105/3 36/107/3 35/108/3
f 33/109/4 36/110/4 40/111/4
f 33/109/4 40/111/4 37/112/4
usemtl Material
f 33/113/5 34/114/5 35/115/5
f 33/113/5 35/115/5 36/116/5
f 40/117/6 39/118/6 38/119/6
f 40/117/6 38/119/6 37/120/6
o Cube.003
v 620.000000 1.000000 580.000000
v 620.000000 1.000000 620.000000
v 580.000000 1.000000 620.000000
v 580.000000 1.000000 580.000000
v 620.000000 281.000000 580.000000
v 620.000000 281.000000 620.000000
v 580.000000 281.000000 620.000000
v 580.000000 281.000000 580.000000
vt 0.360434 1.005655
vt 0.836982 1.008753
vt 0.838444 -0.001199
vt 0.361896 -0.004297
vt 0.682244 -0.001520
vt 0.683709 0.995174
vt 0.206202 0.998232
vt 0.204737 0.001538
vt 0.425137 0.998706
vt 0.001961 1.001768
vt 0.000663 0.003893
vt 0.423839 0.000832
vt 1.000205 0.000164
vt 1.001675 0.999370
vt 0.522527 1.002436
vt 0.521057 0.003230
vt 0.329045 1.003269
vt -0.003269 1.004288
vt -0.004288 0.671974
vt 0.328026 0.670955
vt 0.333333 0.667686
vt 0.665647 0.666667
vt 0.666667 0.998980
vt 0.334353 1.000000
usemtl Material_pilar.jpg
s off
f 42/121/1 41/122/1 45/123/1
f 42/121/1 45/123/1 46/124/1
f 46/125/2 47/126/2 43/127/2
f 46/125/2 43/127/2 42/128/2
f 47/129/3 48/130/3 44/131/3
f 47/129/3 44/131/3 43/132/3
f 41/133/4 44/134/4 48/135/4
f 41/133/4 48/135/4 45/136/4
usemtl Material
f 41/137/5 42/138/5 43/139/5
f 41/137/5 43/139/5 44/140/5
f 48/141/6 47/142/6 46/143/6
f 48/141/6 46/143/6 45/144/6
o Cube.002
v 620.000000 1.000000 -20.000000
v 620.000000 1.000000 20.000000
v 580.000000 1.000000 20.000000
v 580.000000 1.000000 -20.000000
v 620.000000 281.000000 -20.000000
v 620.000000 281.000000 20.000000
v 580.000000 281.000000 20.000000
v 580.000000 281.000000 -20.000000
vt 0.360434 1.005655
vt 0.836982 1.008753
vt 0.838444 -0.001199
vt 0.361896 -0.004297
vt 0.682244 -0.001520
vt 0.683709 0.995174
vt 0.206202 0.998232
vt 0.204737 0.001538
vt 0.425137 0.998706
vt 0.001961 1.001768
vt 0.000663 0.003893
vt 0.423839 0.000832
vt 1.000205 0.000164
vt 1.001675 0.999370
vt 0.522527 1.002436
vt 0.521057 0.003230
vt 0.329045 1.003269
vt -0.003269 1.004288
vt -0.004288 0.671974
vt 0.328026 0.670955
vt 0.333333 0.667686
vt 0.665647 0.666667
vt 0.666667 0.998980
vt 0.334353 1.000000
usemtl Material_pilar.jpg
s off
f 50/145/1 49/146/1 53/147/1
f 50/145/1 53/147/1 54/148/1
f 54/149/2 55/150/2 51/151/2
f 54/149/2 51/151/2 50/152/2
f 55/153/3 56/154/3 52/155/3
f 55/153/3 52/155/3 51/156/3
f 49/157/4 52/158/4 56/159/4
f 49/157/4 56/159/4 53/160/4
usemtl Material
f 49/161/5 50/162/5 51/163/5
f 49/161/5 51/163/5 52/164/5
f 56/165/6 55/166/6 54/167/6
f 56/165/6 54/167/6 53/168/6
o Cube.001
v -580.000000 1.000000 -20.000000
v -580.000000 1.000000 20.000000
v -620.000000 1.000000 20.000000
v -620.000000 1.000000 -20.000000
v -580.000000 281.000000 -20.000000
v -580.000000 281.000000 20.000000
v -620.000000 281.000000 20.000000
v -620.000000 281.000000 -20.000000
vt 0.360434 1.005655
vt 0.836982 1.008753
vt 0.838444 -0.001199
vt 0.361896 -0.004297
vt 0.682244 -0.001520
vt 0.683709 0.995174
vt 0.206202 0.998232
vt 0.204737 0.001538
vt 0.425137 0.998706
vt 0.001961 1.001768
vt 0.000663 0.003893
vt 0.423839 0.000832
vt 1.000205 0.000164
vt 1.001675 0.999370
vt 0.522527 1.002436
vt 0.521057 0.003230
vt 0.329045 1.003269
vt -0.003269 1.004288
vt -0.004288 0.671974
vt 0.328026 0.670955
vt 0.333333 0.667686
vt 0.665647 0.666667
vt 0.666667 0.998980
vt 0.334353 1.000000
usemtl Material_pilar.jpg
s off
f 58/169/1 57/170/1 61/171/1
f 58/169/1 61/171/1 62/172/1
f 62/173/2 63/174/2 59/175/2
f 62/173/2 59/175/2 58/176/2
f 63/177/3 64/178/3 60/179/3
f 63/177/3 60/179/3 59/180/3
f 57/181/4 60/182/4 64/183/4
f 57/181/4 64/183/4 61/184/4
usemtl Material
f 57/185/5 58/186/5 59/187/5
f 57/185/5 59/187/5 60/188/5
f 64/189/6 63/190/6 62/191/6
f 64/189/6 62/191/6 61/192/6
o Cube
v 20.000000 1.000000 -20.000000
v 20.000000 1.000000 20.000000
v -20.000000 1.000000 20.000000
v -20.000000 1.000000 -20.000000
v 20.000000 281.000000 -20.000000
v 20.000000 281.000000 20.000000
v -20.000000 281.000000 20.000000
v -20.000000 281.000000 -20.000000
vt 0.360434 1.005655
vt 0.836982 1.008753
vt 0.838444 -0.001199
vt 0.361896 -0.004297
vt 0.682244 -0.001520
vt 0.683709 0.995174
vt 0.206202 0.998232
vt 0.204737 0.001538
vt 0.425137 0.998706
vt 0.001961 1.001768
vt 0.000663 0.003893
vt 0.423839 0.000832
vt 1.000205 0.000164
vt 1.001675 0.999370
vt 0.522527 1.002436
vt 0.521057 0.003230
vt 0.329045 1.003269
vt -0.003269 1.004288
vt -0.004288 0.671974
vt 0.328026 0.670955
vt 0.333333 0.667686
vt 0.665647 0.666667
vt 0.666667 0.998980
vt 0.334353 1.000000
usemtl Material_pilar.jpg
s off
f 66/193/1 65/194/1 69/195/1
f 66/193/1 69/195/1 70/196/1
f 70/197/2 71/198/2 67/199/2
f 70/197/2 67/199/2 66/200/2
f 71/201/3 72/202/3 68/203/3
f 71/201/3 68/203/3 67/204/3
f 65/205/4 68/206/4 72/207/4
f 65/205/4 72/207/4 69/208/4
usemtl Material
f 65/209/5 66/210/5 67/211/5
f 65/209/5 67/211/5 68/212/5
f 72/213/6 71/214/6 70/215/6
f 72/213/6 70/215/6 69/216/6
