# Blender v2.62 (sub 0) OBJ File: 'parking.blend'
# www.blender.org
mtllib faixas.mtl
o Plane.052
v -845.080200 1.000000 1115.449585
v -845.080200 1.000000 1102.143799
v 815.109680 1.000000 1102.141235
v 815.109680 1.000000 1115.447021
vn 0.000000 1.000000 -0.000000
usemtl Material.001
s off
f 1//1 4//1 3//1
f 1//1 3//1 2//1
o Plane.051
v -847.537598 1.000000 790.011353
v -834.231812 1.000000 790.011353
v -834.231262 1.000000 1101.927490
v -847.537048 1.000000 1101.927490
usemtl Material.001
s off
f 5//1 8//1 7//1
f 5//1 7//1 6//1
o Plane.050
v -697.537598 1.000000 790.011108
v -684.231812 1.000000 790.011108
v -684.231262 1.000000 1101.927246
v -697.537048 1.000000 1101.927246
usemtl Material.001
s off
f 9//1 12//1 11//1
f 9//1 11//1 10//1
o Plane.049
v -547.537598 1.000000 790.010986
v -534.231812 1.000000 790.010986
v -534.231262 1.000000 1101.927124
v -547.537048 1.000000 1101.927124
usemtl Material.001
s off
f 13//1 16//1 15//1
f 13//1 15//1 14//1
o Plane.048
v -397.537720 1.000000 790.010742
v -384.231934 1.000000 790.010742
v -384.231354 1.000000 1101.926880
v -397.537140 1.000000 1101.926880
usemtl Material.001
s off
f 17//1 20//1 19//1
f 17//1 19//1 18//1
o Plane.047
v -247.537628 1.000000 790.010498
v -234.231827 1.000000 790.010498
v -234.231247 1.000000 1101.926636
v -247.537048 1.000000 1101.926636
usemtl Material.001
s off
f 21//1 24//1 23//1
f 21//1 23//1 22//1
o Plane.046
v -97.537659 1.000000 790.010376
v -84.231865 1.000000 790.010376
v -84.231285 1.000000 1101.926514
v -97.537086 1.000000 1101.926514
usemtl Material.001
s off
f 25//1 28//1 27//1
f 25//1 27//1 26//1
o Plane.045
v 802.462402 1.000000 790.009155
v 815.768188 1.000000 790.009155
v 815.768738 1.000000 1101.925293
v 802.462952 1.000000 1101.925293
usemtl Material.001
s off
f 29//1 32//1 31//1
f 29//1 31//1 30//1
o Plane.044
v 652.462402 1.000000 790.009399
v 665.768188 1.000000 790.009399
v 665.768738 1.000000 1101.925537
v 652.462952 1.000000 1101.925537
usemtl Material.001
s off
f 33//1 36//1 35//1
f 33//1 35//1 34//1
o Plane.043
v 502.462372 1.000000 790.009644
v 515.768188 1.000000 790.009644
v 515.768738 1.000000 1101.925781
v 502.462952 1.000000 1101.925781
usemtl Material.001
s off
f 37//1 40//1 39//1
f 37//1 39//1 38//1
o Plane.042
v 352.462280 1.000000 790.009766
v 365.768066 1.000000 790.009766
v 365.768646 1.000000 1101.925903
v 352.462860 1.000000 1101.925903
usemtl Material.001
s off
f 41//1 44//1 43//1
f 41//1 43//1 42//1
o Plane.041
v 202.462357 1.000000 790.010010
v 215.768158 1.000000 790.010010
v 215.768738 1.000000 1101.926147
v 202.462936 1.000000 1101.926147
usemtl Material.001
s off
f 45//1 48//1 47//1
f 45//1 47//1 46//1
o Plane.040
v 52.462341 1.000000 790.010132
v 65.768135 1.000000 790.010132
v 65.768715 1.000000 1101.926270
v 52.462917 1.000000 1101.926270
usemtl Material.001
s off
f 49//1 52//1 51//1
f 49//1 51//1 50//1
o Plane.039
v -67.170517 1.000000 453.773315
v -80.476311 1.000000 453.773315
v -80.476509 1.000000 141.857162
v -67.170715 1.000000 141.857162
usemtl Material.001
s off
f 53//1 56//1 55//1
f 53//1 55//1 54//1
o Plane.038
v -217.170517 1.000000 453.773315
v -230.476303 1.000000 453.773315
v -230.476501 1.000000 141.857162
v -217.170700 1.000000 141.857162
usemtl Material.001
s off
f 57//1 60//1 59//1
f 57//1 59//1 58//1
o Plane.037
v -367.170532 1.000000 453.773315
v -380.476318 1.000000 453.773315
v -380.476532 1.000000 141.857162
v -367.170715 1.000000 141.857162
usemtl Material.001
s off
f 61//1 64//1 63//1
f 61//1 63//1 62//1
o Plane.036
v -517.170471 1.000000 453.773315
v -530.476318 1.000000 453.773315
v -530.476501 1.000000 141.857162
v -517.170715 1.000000 141.857162
usemtl Material.001
s off
f 65//1 68//1 67//1
f 65//1 67//1 66//1
o Plane.035
v -667.170471 1.000000 453.773315
v -680.476318 1.000000 453.773315
v -680.476501 1.000000 141.857162
v -667.170715 1.000000 141.857162
usemtl Material.001
s off
f 69//1 72//1 71//1
f 69//1 71//1 70//1
o Plane.034
v -817.170471 1.000000 453.773315
v -830.476318 1.000000 453.773315
v -830.476501 1.000000 141.857162
v -817.170715 1.000000 141.857162
usemtl Material.001
s off
f 73//1 76//1 75//1
f 73//1 75//1 74//1
o Plane.033
v 82.829483 1.000000 453.773315
v 69.523689 1.000000 453.773315
v 69.523491 1.000000 141.857162
v 82.829285 1.000000 141.857162
usemtl Material.001
s off
f 77//1 80//1 79//1
f 77//1 79//1 78//1
o Plane.032
v 232.829483 1.000000 453.773315
v 219.523697 1.000000 453.773315
v 219.523499 1.000000 141.857162
v 232.829300 1.000000 141.857162
usemtl Material.001
s off
f 81//1 84//1 83//1
f 81//1 83//1 82//1
o Plane.031
v 382.829468 1.000000 453.773315
v 369.523682 1.000000 453.773315
v 369.523468 1.000000 141.857162
v 382.829285 1.000000 141.857162
usemtl Material.001
s off
f 85//1 88//1 87//1
f 85//1 87//1 86//1
o Plane.030
v 532.829529 1.000000 453.773315
v 519.523682 1.000000 453.773315
v 519.523499 1.000000 141.857162
v 532.829285 1.000000 141.857162
usemtl Material.001
s off
f 89//1 92//1 91//1
f 89//1 91//1 90//1
o Plane.029
v 682.829529 1.000000 453.773315
v 669.523682 1.000000 453.773315
v 669.523499 1.000000 141.857162
v 682.829285 1.000000 141.857162
usemtl Material.001
s off
f 93//1 96//1 95//1
f 93//1 95//1 94//1
o Plane.028
v 832.829529 1.000000 453.773315
v 819.523682 1.000000 453.773315
v 819.523499 1.000000 141.857162
v 832.829285 1.000000 141.857162
usemtl Material.001
s off
f 97//1 100//1 99//1
f 97//1 99//1 98//1
o Plane.027
v 830.372437 1.000000 128.334991
v 830.372437 1.000000 141.640778
v -829.817444 1.000000 141.641251
v -829.817444 1.000000 128.335464
usemtl Material.001
s off
f 101//1 104//1 103//1
f 101//1 103//1 102//1
o Plane.026
v 66.508209 1.000000 -441.500793
v 79.814003 1.000000 -441.500793
v 79.814583 1.000000 -129.584671
v 66.508781 1.000000 -129.584656
usemtl Material.001
s off
f 105//1 108//1 107//1
f 105//1 107//1 106//1
o Plane.025
v 216.508194 1.000000 -441.500977
v 229.813995 1.000000 -441.500977
v 229.814575 1.000000 -129.584854
v 216.508774 1.000000 -129.584839
usemtl Material.001
s off
f 109//1 112//1 111//1
f 109//1 111//1 110//1
o Plane.024
v 366.508179 1.000000 -441.501160
v 379.813965 1.000000 -441.501190
v 379.814545 1.000000 -129.585052
v 366.508759 1.000000 -129.585037
usemtl Material.001
s off
f 113//1 116//1 115//1
f 113//1 115//1 114//1
o Plane.023
v 516.508179 1.000000 -441.501343
v 529.813965 1.000000 -441.501404
v 529.814514 1.000000 -129.585251
v 516.508728 1.000000 -129.585236
usemtl Material.001
s off
f 117//1 120//1 119//1
f 117//1 119//1 118//1
o Plane.022
v 666.508179 1.000000 -441.501526
v 679.813965 1.000000 -441.501587
v 679.814514 1.000000 -129.585434
v 666.508728 1.000000 -129.585419
usemtl Material.001
s off
f 121//1 124//1 123//1
f 121//1 123//1 122//1
o Plane.021
v 816.508179 1.000000 -441.501740
v 829.813965 1.000000 -441.501770
v 829.814514 1.000000 -129.585632
v 816.508728 1.000000 -129.585617
usemtl Material.001
s off
f 125//1 128//1 127//1
f 125//1 127//1 126//1
o Plane.020
v -83.491791 1.000000 -441.500580
v -70.185997 1.000000 -441.500610
v -70.185417 1.000000 -129.584473
v -83.491219 1.000000 -129.584457
usemtl Material.001
s off
f 129//1 132//1 131//1
f 129//1 131//1 130//1
o Plane.019
v -233.491806 1.000000 -441.500397
v -220.186005 1.000000 -441.500427
v -220.185425 1.000000 -129.584290
v -233.491226 1.000000 -129.584274
usemtl Material.001
s off
f 133//1 136//1 135//1
f 133//1 135//1 134//1
o Plane.018
v -383.491821 1.000000 -441.500183
v -370.186035 1.000000 -441.500244
v -370.185455 1.000000 -129.584091
v -383.491241 1.000000 -129.584076
usemtl Material.001
s off
f 137//1 140//1 139//1
f 137//1 139//1 138//1
o Plane.017
v -533.491821 1.000000 -441.500000
v -520.186035 1.000000 -441.500061
v -520.185486 1.000000 -129.583908
v -533.491272 1.000000 -129.583893
usemtl Material.001
s off
f 141//1 144//1 143//1
f 141//1 143//1 142//1
o Plane.016
v -683.491821 1.000000 -441.499817
v -670.186035 1.000000 -441.499847
v -670.185486 1.000000 -129.583710
v -683.491272 1.000000 -129.583694
usemtl Material.001
s off
f 145//1 148//1 147//1
f 145//1 147//1 146//1
o Plane.015
v -833.491821 1.000000 -441.499634
v -820.186035 1.000000 -441.499634
v -820.185486 1.000000 -129.583511
v -833.491272 1.000000 -129.583496
usemtl Material.001
s off
f 149//1 152//1 151//1
f 149//1 151//1 150//1
o Plane.013_Plane.001
v -831.034363 1.000000 -116.061340
v -831.034363 1.000000 -129.367142
v 829.155518 1.000000 -129.369736
v 829.155518 1.000000 -116.063934
usemtl Material.001
s off
f 153//1 156//1 155//1
f 153//1 155//1 154//1
o Plane.010_Plane.014
v 844.418213 1.000000 -1111.338379
v 844.418213 1.000000 -1098.032593
v -815.771667 1.000000 -1098.032104
v -815.771667 1.000000 -1111.337891
usemtl Material.001
s off
f 157//1 160//1 159//1
f 157//1 159//1 158//1
o Plane.012_Plane.013
v 846.875305 1.000000 -785.900146
v 833.569458 1.000000 -785.900146
v 833.569275 1.000000 -1097.816284
v 846.875061 1.000000 -1097.816284
usemtl Material.001
s off
f 161//1 164//1 163//1
f 161//1 163//1 162//1
o Plane.011_Plane.012
v 696.875305 1.000000 -785.900146
v 683.569458 1.000000 -785.900146
v 683.569275 1.000000 -1097.816284
v 696.875061 1.000000 -1097.816284
usemtl Material.001
s off
f 165//1 168//1 167//1
f 165//1 167//1 166//1
o Plane.009_Plane.011
v 546.875305 1.000000 -785.900146
v 533.569458 1.000000 -785.900146
v 533.569275 1.000000 -1097.816284
v 546.875061 1.000000 -1097.816284
usemtl Material.001
s off
f 169//1 172//1 171//1
f 169//1 171//1 170//1
o Plane.007_Plane.010
v 396.875244 1.000000 -785.900146
v 383.569458 1.000000 -785.900146
v 383.569244 1.000000 -1097.816284
v 396.875061 1.000000 -1097.816284
usemtl Material.001
s off
f 173//1 176//1 175//1
f 173//1 175//1 174//1
o Plane.006_Plane.009
v 246.875259 1.000000 -785.900146
v 233.569473 1.000000 -785.900146
v 233.569275 1.000000 -1097.816284
v 246.875076 1.000000 -1097.816284
usemtl Material.001
s off
f 177//1 180//1 179//1
f 177//1 179//1 178//1
o Plane.005_Plane.008
v 96.875259 1.000000 -785.900146
v 83.569466 1.000000 -785.900146
v 83.569267 1.000000 -1097.816284
v 96.875061 1.000000 -1097.816284
usemtl Material.001
s off
f 181//1 184//1 183//1
f 181//1 183//1 182//1
o Plane.008_Plane.007
v -803.124695 1.000000 -785.900146
v -816.430542 1.000000 -785.900146
v -816.430725 1.000000 -1097.816284
v -803.124939 1.000000 -1097.816284
usemtl Material.001
s off
f 185//1 188//1 187//1
f 185//1 187//1 186//1
o Plane.004_Plane.006
v -653.124695 1.000000 -785.900146
v -666.430542 1.000000 -785.900146
v -666.430725 1.000000 -1097.816284
v -653.124939 1.000000 -1097.816284
usemtl Material.001
s off
f 189//1 192//1 191//1
f 189//1 191//1 190//1
o Plane.003_Plane.005
v -503.124786 1.000000 -785.900146
v -516.430603 1.000000 -785.900146
v -516.430786 1.000000 -1097.816284
v -503.124969 1.000000 -1097.816284
usemtl Material.001
s off
f 193//1 196//1 195//1
f 193//1 195//1 194//1
o Plane.002_Plane.004
v -353.124756 1.000000 -785.900146
v -366.430542 1.000000 -785.900146
v -366.430756 1.000000 -1097.816284
v -353.124939 1.000000 -1097.816284
usemtl Material.001
s off
f 197//1 200//1 199//1
f 197//1 199//1 198//1
o Plane.001_Plane.003
v -203.124741 1.000000 -785.900146
v -216.430527 1.000000 -785.900146
v -216.430725 1.000000 -1097.816284
v -203.124924 1.000000 -1097.816284
usemtl Material.001
s off
f 201//1 204//1 203//1
f 201//1 203//1 202//1
o Plane.014_Plane.002
v -53.124741 1.000000 -785.900146
v -66.430534 1.000000 -785.900146
v -66.430733 1.000000 -1097.816284
v -53.124935 1.000000 -1097.816284
usemtl Material.001
s off
f 205//1 208//1 207//1
f 205//1 207//1 206//1
