# Blender v2.62 (sub 0) OBJ File: 'parking.blend'
# www.blender.org
mtllib muro.mtl
o Plane.057
v 1200.000000 281.000000 1199.998291
v -1200.000000 281.000000 1200.001465
v 1200.000000 1.000000 1199.998535
v -1200.000000 1.000000 1200.001709
vt 0.003058 1.000000
vt 0.000000 0.003058
vt 0.996942 0.000000
vt 1.000000 0.996942
vn -0.000001 -0.000001 -1.000000
usemtl Material.002_Concreto.jpg.004
s off
f 2/1/1 1/2/1 3/3/1
f 2/1/1 3/3/1 4/4/1
o Plane.056
v 1199.997559 281.000000 -1200.000000
v 1200.002197 281.000000 1200.000000
v 1199.997803 1.000000 -1200.000000
v 1200.002441 1.000000 1200.000000
vt 0.003058 1.000000
vt 0.000000 0.003058
vt 0.996942 0.000000
vt 1.000000 0.996942
vn -1.000000 -0.000001 0.000002
usemtl Material.002_Concreto.jpg.004
s off
f 6/5/2 5/6/2 7/7/2
f 6/5/2 7/7/2 8/8/2
o Plane.055
v -1199.999146 281.000000 1200.000000
v -1200.000732 281.000000 -1200.000000
v -1199.999268 1.000000 1200.000000
v -1200.000854 1.000000 -1200.000000
vt 0.003058 1.000000
vt 0.000000 0.003058
vt 0.996942 0.000000
vt 1.000000 0.996942
vn 1.000000 -0.000000 -0.000001
usemtl Material.002_Concreto.jpg.004
s off
f 10/9/3 9/10/3 11/11/3
f 10/9/3 11/11/3 12/12/3
o Plane.054
v -1200.000000 281.000000 -1199.999878
v 1200.000000 281.000000 -1199.999878
v -1200.000000 1.000000 -1200.000122
v 1200.000000 1.000000 -1200.000122
vt 0.003058 1.000000
vt 0.000000 0.003058
vt 0.996942 0.000000
vt 1.000000 0.996942
vn 0.000000 -0.000001 1.000000
usemtl Material.002_Concreto.jpg.004
s off
f 14/13/4 13/14/4 15/15/4
f 14/13/4 15/15/4 16/16/4
